<svg width="31" height="30" viewBox="0 0 31 30" fill="none" xmlns="http://www.w3.org/2000/svg">
<rect x="0.666504" width="30" height="30" rx="15" fill="#F5F6F7"/>
<path d="M21.9043 9.28184C20.757 8.75543 19.5267 8.36759 18.2404 8.14546C18.217 8.14118 18.1936 8.15189 18.1815 8.17332C18.0233 8.45473 17.8481 8.82185 17.7253 9.11041C16.3418 8.90328 14.9654 8.90328 13.6102 9.11041C13.4875 8.81544 13.3059 8.45473 13.1469 8.17332C13.1349 8.1526 13.1115 8.14189 13.088 8.14546C11.8024 8.36688 10.5722 8.75472 9.42421 9.28184C9.41427 9.28613 9.40575 9.29327 9.4001 9.30255C7.06655 12.7888 6.42729 16.1894 6.74089 19.5478C6.74231 19.5643 6.75153 19.58 6.7643 19.59C8.30391 20.7206 9.79528 21.407 11.259 21.862C11.2824 21.8691 11.3072 21.8606 11.3221 21.8413C11.6683 21.3685 11.977 20.8699 12.2416 20.3456C12.2572 20.3149 12.2423 20.2785 12.2104 20.2664C11.7209 20.0807 11.2547 19.8542 10.8063 19.5971C10.7708 19.5764 10.768 19.5257 10.8006 19.5014C10.895 19.4307 10.9894 19.3571 11.0795 19.2828C11.0958 19.2693 11.1185 19.2664 11.1377 19.275C14.0835 20.6199 17.2727 20.6199 20.1837 19.275C20.2029 19.2657 20.2256 19.2685 20.2426 19.2821C20.3327 19.3564 20.4271 19.4307 20.5222 19.5014C20.5548 19.5257 20.5527 19.5764 20.5172 19.5971C20.0688 19.8592 19.6026 20.0807 19.1124 20.2656C19.0805 20.2778 19.0663 20.3149 19.0819 20.3456C19.3522 20.8692 19.6608 21.3677 20.0007 21.8406C20.0149 21.8606 20.0404 21.8691 20.0638 21.862C21.5346 21.407 23.026 20.7206 24.5656 19.59C24.5791 19.58 24.5876 19.565 24.589 19.5485C24.9643 15.6658 23.9604 12.2931 21.9277 9.30326C21.9227 9.29327 21.9142 9.28613 21.9043 9.28184Z" fill="#374151"/>
<path d="M11.064 15.6887C11.064 16.6887 11.7947 17.5029 12.6816 17.5029C13.5827 17.5029 14.2993 16.6887 14.2993 15.6887C14.3135 14.6959 13.5898 13.8745 12.6816 13.8745C11.7806 13.8745 11.064 14.6887 11.064 15.6887Z" fill="white"/>
<path d="M17.045 15.6887C17.045 16.6887 17.7758 17.5029 18.6627 17.5029C19.5708 17.5029 20.2803 16.6887 20.2803 15.6887C20.2945 14.6959 19.5708 13.8745 18.6627 13.8745C17.7616 13.8745 17.045 14.6887 17.045 15.6887Z" fill="white"/>
</svg>
