<svg width="31" height="30" viewBox="0 0 31 30" fill="none" xmlns="http://www.w3.org/2000/svg">
<rect x="0.666504" width="30" height="30" rx="15" fill="#F5F6F7"/>
<path d="M24.6665 15C24.6665 10.0294 20.6371 6 15.6665 6C10.6959 6 6.6665 10.0294 6.6665 15C6.6665 19.4922 9.95767 23.2155 14.2603 23.8907V17.6016H11.9751V15H14.2603V13.0172C14.2603 10.7616 15.6039 9.51563 17.6597 9.51563C18.6444 9.51563 19.6743 9.69141 19.6743 9.69141V11.9063H18.5394C17.4214 11.9063 17.0728 12.6 17.0728 13.3117V15H19.5688L19.1698 17.6016H17.0728V23.8907C21.3753 23.2155 24.6665 19.4922 24.6665 15Z" fill="#374151"/>
<path d="M19.1698 17.6016L19.5688 15H17.0728V13.3117C17.0728 12.6 17.4214 11.9062 18.5394 11.9062H19.6743V9.69141C19.6743 9.69141 18.6444 9.51562 17.6597 9.51562C15.6039 9.51562 14.2603 10.7616 14.2603 13.0172V15H11.9751V17.6016H14.2603V23.8907C14.7185 23.9626 15.1881 24 15.6665 24C16.1449 24 16.6145 23.9626 17.0728 23.8907V17.6016H19.1698Z" fill="white"/>
</svg>
