<svg width="31" height="30" viewBox="0 0 31 30" fill="none" xmlns="http://www.w3.org/2000/svg">
<rect x="0.666504" width="30" height="30" rx="15" fill="#F5F6F7"/>
<g clip-path="url(#clip0_319_14512)">
<path d="M11.7431 9.90234C14.5469 9.90234 16.8196 12.1909 16.8196 15.0138C16.8196 17.8367 14.5467 20.1251 11.7431 20.1251C8.93955 20.1251 6.6665 17.8367 6.6665 15.0138C6.6665 12.1909 8.93938 9.90234 11.7431 9.90234ZM19.8501 10.2018C21.252 10.2018 22.3885 12.356 22.3885 15.0138H22.3886C22.3886 17.671 21.2522 19.8259 19.8503 19.8259C18.4484 19.8259 17.312 17.671 17.312 15.0138C17.312 12.3567 18.4483 10.2018 19.8501 10.2018ZM23.7738 10.703C24.2667 10.703 24.6665 12.633 24.6665 15.0138C24.6665 17.394 24.2669 19.3246 23.7738 19.3246C23.2807 19.3246 22.8812 17.3945 22.8812 15.0138C22.8812 12.6331 23.2808 10.703 23.7738 10.703Z" fill="#374151"/>
</g>
<defs>
<clipPath id="clip0_319_14512">
<rect width="18" height="18" fill="white" transform="translate(6.6665 6)"/>
</clipPath>
</defs>
</svg>
