<svg width="31" height="30" viewBox="0 0 31 30" fill="none" xmlns="http://www.w3.org/2000/svg">
<rect x="0.666504" width="30" height="30" rx="15" fill="#F5F6F7"/>
<path d="M15.6665 24C20.6371 24 24.6665 19.9706 24.6665 15C24.6665 10.0294 20.6371 6 15.6665 6C10.6959 6 6.6665 10.0294 6.6665 15C6.6665 19.9706 10.6959 24 15.6665 24Z" fill="#374151"/>
<path fill-rule="evenodd" clip-rule="evenodd" d="M10.7403 14.905C13.364 13.7619 15.1135 13.0083 15.9889 12.6442C18.4883 11.6046 19.0076 11.424 19.3461 11.418C19.4206 11.4167 19.587 11.4352 19.6949 11.5227C19.7859 11.5966 19.811 11.6964 19.823 11.7664C19.835 11.8364 19.8499 11.996 19.838 12.1207C19.7026 13.5438 19.1165 16.9973 18.8184 18.5912C18.6922 19.2657 18.4438 19.4918 18.2033 19.514C17.6806 19.562 17.2838 19.1686 16.7776 18.8367C15.9854 18.3175 15.5379 17.9943 14.7691 17.4876C13.8805 16.902 14.4565 16.5802 14.9629 16.0542C15.0954 15.9166 17.3982 13.822 17.4428 13.632C17.4484 13.6082 17.4535 13.5196 17.4009 13.4729C17.3483 13.4261 17.2706 13.4421 17.2146 13.4548C17.1351 13.4728 15.8697 14.3092 13.4183 15.964C13.0591 16.2106 12.7338 16.3308 12.4423 16.3245C12.121 16.3176 11.5028 16.1428 11.0433 15.9934C10.4797 15.8102 10.0317 15.7134 10.0707 15.4022C10.091 15.2401 10.3142 15.0744 10.7403 14.905Z" fill="white"/>
</svg>
