<svg width="31" height="30" viewBox="0 0 31 30" fill="none" xmlns="http://www.w3.org/2000/svg">
<rect x="0.666504" width="30" height="30" rx="15" fill="#F5F6F7"/>
<path d="M22.8237 11.2459C22.8347 11.4086 22.8347 11.5714 22.8347 11.7356C22.8347 16.74 19.1199 22.5115 12.3272 22.5115V22.5085C10.3206 22.5115 8.35572 21.9221 6.6665 20.8107C6.95828 20.8467 7.25151 20.8647 7.54548 20.8654C9.20837 20.8669 10.8237 20.2947 12.132 19.241C10.5517 19.2103 9.16596 18.1536 8.68186 16.611C9.23543 16.7205 9.80581 16.698 10.3491 16.5457C8.62628 16.1888 7.3868 14.6364 7.3868 12.8335C7.3868 12.817 7.3868 12.8013 7.3868 12.7855C7.90014 13.0787 8.47491 13.2415 9.06285 13.2595C7.44018 12.1473 6.94 9.93348 7.91989 8.20261C9.79484 10.5687 12.5612 12.0071 15.5309 12.1593C15.2332 10.8439 15.6398 9.46552 16.5992 8.54084C18.0866 7.10695 20.4259 7.18044 21.8241 8.70508C22.6511 8.53784 23.4438 8.22661 24.1692 7.78564C23.8936 8.66233 23.3166 9.40702 22.5458 9.88024C23.2778 9.79174 23.993 9.59076 24.6665 9.28403C24.1707 10.046 23.5462 10.7097 22.8237 11.2459Z" fill="#374151"/>
</svg>
