<svg xmlns="http://www.w3.org/2000/svg" xmlns:xlink="http://www.w3.org/1999/xlink" x="0px" y="0px"
width="300px" height="150px" viewBox="0 0 300 150">
<linearGradient id="SVGID_1_" gradientUnits="userSpaceOnUse" x1="-196.1316" y1="-271.5747" x2="-193.8441" y2="-271.5747" gradientTransform="matrix(170.8583 -23.5342 23.5342 170.8583 40105.7695 41825.7539)">
<stop  offset="0" style="stop-color:#EE2438"/>
<stop  offset="0.2146" style="stop-color:#BD2036"/>
<stop  offset="0.3293" style="stop-color:#AD1F34"/>
<stop  offset="0.4248" style="stop-color:#A42033"/>
<stop  offset="0.5934" style="stop-color:#8B2230"/>
<stop  offset="0.8136" style="stop-color:#651E28"/>
<stop  offset="1" style="stop-color:#46141E"/>
</linearGradient>
<path fill="url(#SVGID_1_)" d="M164.3,79.2c-2.2-4.2-3.5-9.2-4-15.2c-2.2,6.5-7.4,14.6-20.3,17.2c-0.2,0-0.6,0.1-1.1,0.2
c-0.5,0.1-1,0.1-1,0.1H48.7c-2.7,0-4.9-2.2-4.9-4.9V32.1V11.7c0-2.2-1.8-4.1-4.1-4.1H18.2c-2.2,0-4.1,1.8-4.1,4.1v6.7v0.2v43.5v37.8
c0,4.6,3.7,8.3,8.3,8.3h46.7h67.1h3.3c0,0,12.2-0.4,23-6.5c4-2,8.2-4.7,12.3-8.2C170.6,89.4,167.1,84.6,164.3,79.2z"/>
<linearGradient id="SVGID_2_" gradientUnits="userSpaceOnUse" x1="-196.1316" y1="-271.6106" x2="-193.8441" y2="-271.6106" gradientTransform="matrix(170.8583 -23.5342 23.5342 170.8583 40105.1172 41821.0273)">
<stop  offset="0" style="stop-color:#EE2438"/>
<stop  offset="0.2146" style="stop-color:#BD2036"/>
<stop  offset="0.3293" style="stop-color:#AD1F34"/>
<stop  offset="0.4248" style="stop-color:#A42033"/>
<stop  offset="0.5934" style="stop-color:#8B2230"/>
<stop  offset="0.8136" style="stop-color:#651E28"/>
<stop  offset="1" style="stop-color:#46141E"/>
</linearGradient>
<path fill="url(#SVGID_2_)" d="M279.8,7.6h-3.6h-62.1c-6.8,0.3-23.6,2.1-36.7,14.6c0.4,0.4,0.8,0.8,1.2,1.2c1,0.8,9.8,8.5,12.8,25.8
c0.1,0.6,0.2,1.7,0.4,3.1c0.8-3.2,2.2-6.1,4.2-8.7c4.3-5.5,12.1-9.3,18.3-9.5h2.9h44.5h18.1c2.7,0,4.9-2.2,4.9-4.9V12.5
C284.7,9.8,282.5,7.6,279.8,7.6z"/>
<path fill="#DE8751" d="M276.4,42.8h-52.3c-1.9,0-3.5,1.6-3.5,3.5v15.4c0,1.9,1.6,3.5,3.5,3.5h31.3v18H217l0,0h-1.9
c-4.6,0-13.3-3.1-17.8-8c-3.6-3.9-6-8.9-6.4-14.5c-0.1-0.6-0.8-8.8-1.1-10.9c-3-17.6-12.3-24.9-12.3-24.9
C164.9,12.3,150.3,9,142.3,8.2c-1.1-0.1-6.2-0.3-6.2-0.3H86.9c-9.9,0-18,7.8-18,17.7v50.2c0,2,1.6,3.6,3.6,3.6H95
c2,0,3.6-1.6,3.6-3.6l-0.1-41.5h38.2c0,0,0.7,0,1.5,0c0.7,0.1,1.3,0.2,1.6,0.3c19,3.8,21.6,19.4,22,24.6c0,0.6,0,1.2,0,1.7l0,0l0,0
c0.2,6.3,1.3,12.4,4,17.6c14.6,28.1,43.5,29.9,49.9,30h0.4h7.7h44.8c8.7,0,15.8-7.1,15.8-15.8V50.8
C284.5,46.4,280.9,42.8,276.4,42.8"/>
<polygon fill="#DE8751" points="14,122 16.6,122 17.8,122 17.8,143.1 14,143.1 "/>
<polygon fill="#DE8751" points="48,122 48,143.1 44.2,140.2 30.6,129.8 30.6,143.1 26.9,143.1 26.9,122.1 30.6,125 44.2,135.4 
44.2,122 "/>
<polygon fill="#DE8751" points="77.4,122 75.4,125.8 66.6,143.1 57.7,125.8 55.8,122 60,122 62,125.8 66.6,134.8 71.2,125.8 
73.1,122 "/>
<path fill="#DE8751" d="M87.7,127.7v2h13.6v3.8H87.7v4c0,1.1,0.9,1.9,1.9,1.9H105v3.8H89.6c-3.1,0-5.7-2.6-5.7-5.7v-9.7
c0-3.1,2.5-5.7,5.7-5.7H105v3.8H89.6C88.6,125.8,87.7,126.6,87.7,127.7"/>
<polygon fill="#DE8751" points="164.3,122 164.3,125.8 155.6,125.8 155.6,143.1 151.9,143.1 151.9,125.8 143.2,125.8 143.2,122 "/>
<path fill="#DE8751" d="M130.9,127.8L130.9,127.8c0-1.2-0.9-2-1.9-2h-8.6c-1.1,0-1.9,0.9-1.9,1.9v0.1c0,1.1,0.9,1.9,1.9,1.9h7.6
c2,0,3.7,0.8,4.9,2.2c0.1,0.1,0.2,0.2,0.2,0.3c0.9,1.1,1.5,2.6,1.5,4.2c0,3.7-3,6.7-6.7,6.7h-6.6c-3.7,0-6.7-3-6.7-6.7h3.8
c0,1.6,1.3,2.9,2.9,2.9h6.6c1.6,0,2.9-1.3,2.9-2.9c0-1.6-1.3-2.9-2.9-2.9h-7.6c-1.5,0-2.9-0.6-4-1.6c-0.3-0.3-0.5-0.6-0.7-0.9
c-0.6-0.9-1-2-1-3.2v-0.1c0-3.1,2.5-5.7,5.7-5.7h8.6c3.1,0,5.7,2.6,5.7,5.7v0.1H130.9z"/>
<polygon fill="#DE8751" points="194.5,122 194.5,143.1 190.7,143.1 190.7,129.6 187,132.5 183.9,134.9 180.8,132.5 177.1,129.6 
177.1,143.1 173.3,143.1 173.3,122 177.1,124.9 183.9,130.1 190.7,124.9 "/>
<path fill="#DE8751" d="M207.3,127.7v2h13.6v3.8h-13.6v4c0,1.1,0.9,1.9,1.9,1.9h15.4v3.8h-15.4c-3.1,0-5.7-2.6-5.7-5.7v-9.7
c0-3.1,2.5-5.7,5.7-5.7h15.4v3.8h-15.4C208.2,125.8,207.3,126.6,207.3,127.7"/>
<polygon fill="#DE8751" points="254.8,122 254.8,143.1 251.1,140.2 237.5,129.8 237.5,143.1 233.7,143.1 233.7,122.1 237.5,125 
251.1,135.4 251.1,122 "/>
<polygon fill="#DE8751" points="285,122 285,125.8 276.3,125.8 276.3,143.1 272.6,143.1 272.6,125.8 263.9,125.8 263.9,122 "/>
</svg>
